<svg xmlns="http://www.w3.org/2000/svg" viewBox="0 0 1024 1024">
  <!-- Alice Protocol Logo - Auto traced from PNG -->
  <g transform="translate(0,1024) scale(0.1,-0.1)" fill="#F97316">
    <path d="M5635 7050 c112 -184 252 -416 312 -515 60 -99 224 -369 365 -600 140 -231 373 -616 518 -855 144 -239 273 -452 286 -472 13 -20 193 -317 400 -660 207 -343 428 -707 490 -810 63 -103 114 -189 114 -192 0 -3 -525 -6 -1167 -6 l-1168 0 81 33 c91 37 197 109 262 177 261 272 330 674 181 1055 -43 110 -53 128 -315 550 -181 292 -334 542 -501 820 -201 336 -356 591 -367 602 -8 9 -29 -19 -87 -115 -95 -160 -269 -446 -431 -712 -69 -113 -168 -275 -220 -360 -52 -85 -141 -229 -198 -320 -277 -440 -323 -555 -336 -820 -7 -145 8 -250 57 -384 52 -145 181 -316 309 -412 47 -35 157 -90 197 -99 18 -3 35 -10 37 -13 4 -8 -2325 -5 -2332 3 -2 2 69 125 158 272 89 147 214 354 278 458 63 105 170 280 237 390 115 188 222 364 740 1220 117 193 276 456 355 585 170 280 516 850 833 1375 126 209 267 442 314 517 l85 138 155 -258 c86 -141 247 -408 358 -592z m-505 -1770 c0 -29 49 -159 83 -220 46 -84 123 -184 178 -234 109 -98 254 -173 384 -199 l70 -14 -73 -16 c-280 -63 -541 -316 -631 -612 -7 -22 -15 -47 -18 -55 -3 -8 -11 9 -19 38 -35 134 -126 286 -238 398 -119 118 -250 194 -401 231 l-66 16 88 22 c157 40 260 98 374 210 116 115 208 272 241 414 11 48 28 61 28 21z"/>
  </g>
</svg>
